<?xml version="1.0" standalone="no"?>
<!DOCTYPE svg PUBLIC "-//W3C//DTD SVG 20010904//EN"
 "http://www.w3.org/TR/2001/REC-SVG-20010904/DTD/svg10.dtd">
<svg version="1.0" xmlns="http://www.w3.org/2000/svg"
 width="512.000000pt" height="512.000000pt" viewBox="0 0 512.000000 512.000000"
 preserveAspectRatio="xMidYMid meet">

<g transform="translate(0.000000,512.000000) scale(0.100000,-0.100000)"
fill="#000000" stroke="none">
<path d="M3300 4958 c-61 -90 -119 -174 -128 -187 l-18 -25 -68 27 c-301 121
-683 128 -991 17 -50 -17 -100 -34 -112 -37 -19 -4 -37 19 -142 176 -67 100
-125 181 -129 181 -4 0 -46 -26 -94 -58 l-88 -58 121 -179 c110 -166 118 -181
102 -193 -226 -163 -375 -339 -488 -575 -78 -161 -135 -378 -135 -508 0 -27
-4 -49 -9 -49 -5 0 -30 10 -57 21 -74 33 -202 38 -292 10 -154 -46 -271 -177
-302 -336 -8 -43 -10 -255 -8 -730 3 -667 3 -670 25 -724 51 -123 142 -215
261 -263 80 -32 232 -32 312 0 30 12 55 22 56 22 1 0 4 -54 7 -119 6 -137 27
-197 92 -269 60 -67 132 -96 250 -102 l100 -5 5 -330 c6 -369 7 -379 84 -484
179 -243 555 -236 720 13 70 105 70 106 76 471 l5 330 108 3 107 3 0 -278 c0
-153 5 -307 11 -343 28 -176 150 -315 317 -362 240 -66 484 75 547 317 12 47
15 122 15 361 l0 302 103 4 c80 3 112 9 149 27 63 30 121 88 155 153 25 48 28
64 31 184 l4 131 60 -24 c231 -94 483 20 579 262 l24 60 3 649 c2 434 -1 673
-8 720 -23 147 -120 274 -257 338 -57 27 -83 33 -158 36 -78 4 -101 1 -165
-22 -41 -14 -75 -24 -75 -23 -1 1 -7 47 -13 102 -44 389 -253 755 -564 986
l-77 57 120 177 c65 97 119 179 119 181 0 2 -40 31 -90 64 l-89 60 -111 -162z
m-495 -333 c367 -77 680 -317 849 -652 60 -121 116 -311 116 -399 l0 -34
-1211 0 -1210 0 6 48 c46 333 218 623 490 825 141 104 338 190 500 216 39 6
81 13 95 15 54 9 289 -3 365 -19z m-1834 -1315 c19 -5 54 -26 76 -45 77 -65
74 -36 71 -792 l-3 -671 -30 -44 c-20 -28 -49 -52 -84 -70 -89 -45 -174 -34
-246 34 -78 71 -76 47 -73 789 3 719 0 678 65 743 57 58 141 79 224 56z m2809
-1006 l0 -1016 -34 -34 -34 -34 -186 0 -186 0 0 -396 c0 -269 -4 -410 -12
-442 -16 -63 -85 -133 -150 -151 -92 -26 -199 15 -249 95 l-24 39 -5 425 -5
425 -332 3 -333 2 0 -412 c0 -466 1 -459 -78 -530 -111 -100 -279 -62 -343 77
-17 37 -19 74 -19 453 l0 412 -181 0 c-187 0 -209 4 -241 44 -16 20 -18 90
-18 1039 l0 1017 1215 0 1215 0 0 -1016z m528 1000 c47 -19 88 -58 115 -109
22 -40 22 -47 25 -663 2 -403 -1 -643 -8 -680 -5 -32 -22 -75 -38 -97 -32 -47
-118 -95 -170 -95 -85 0 -165 48 -205 123 -22 42 -22 43 -25 676 -2 444 1 650
8 688 28 131 175 209 298 157z"/>
<path d="M1900 3985 l0 -115 110 0 110 0 0 115 0 115 -110 0 -110 0 0 -115z"/>
<path d="M3010 3985 l0 -116 108 3 107 3 0 110 0 110 -107 3 -108 3 0 -116z"/>
</g>
</svg>
