<?xml version="1.0" standalone="no"?>
<!DOCTYPE svg PUBLIC "-//W3C//DTD SVG 20010904//EN"
 "http://www.w3.org/TR/2001/REC-SVG-20010904/DTD/svg10.dtd">
<svg version="1.0" xmlns="http://www.w3.org/2000/svg"
 width="512.000000pt" height="512.000000pt" viewBox="0 0 512.000000 512.000000"
 preserveAspectRatio="xMidYMid meet">

<g transform="translate(0.000000,512.000000) scale(0.100000,-0.100000)"
fill="#000000" stroke="none">
<path d="M500 5104 c-234 -50 -436 -254 -485 -489 -22 -105 -22 -4005 0 -4110
50 -237 252 -439 491 -490 104 -22 4004 -22 4109 0 181 38 349 168 433 335 77
153 72 -4 72 2210 0 2214 5 2057 -72 2210 -84 167 -252 297 -433 335 -102 21
-4015 21 -4115 -1z m4145 -278 c76 -38 143 -105 181 -181 l29 -60 0 -2025 0
-2025 -29 -60 c-38 -76 -105 -143 -181 -181 l-60 -29 -2025 0 -2025 0 -60 29
c-76 38 -143 105 -181 181 l-29 60 -3 2005 c-2 1741 0 2011 13 2055 31 107
139 217 245 250 38 12 355 13 2055 12 l2010 -2 60 -29z"/>
<path d="M1818 3960 c-139 -25 -261 -90 -358 -190 -66 -68 -112 -143 -148
-242 l-27 -73 0 -895 0 -895 27 -73 c36 -101 82 -173 153 -246 73 -75 154
-125 260 -162 76 -27 90 -28 255 -29 192 0 238 9 354 67 159 80 277 223 333
404 17 55 18 114 18 934 0 975 4 914 -70 1059 -78 154 -204 260 -374 318 -66
22 -96 26 -226 29 -82 2 -171 -1 -197 -6z m384 -282 c80 -37 152 -107 191
-187 l32 -66 0 -865 0 -865 -27 -57 c-37 -80 -107 -152 -187 -191 l-66 -32
-160 0 c-158 0 -161 0 -225 31 -79 37 -150 107 -188 183 l-27 56 0 875 0 875
27 56 c33 65 105 142 162 171 81 42 115 48 266 45 134 -2 149 -4 202 -29z"/>
<path d="M3605 3960 c-128 -23 -249 -87 -343 -182 -75 -74 -123 -151 -160
-257 -26 -75 -27 -81 -27 -321 0 -241 1 -246 27 -321 61 -172 167 -297 318
-374 108 -55 160 -66 345 -74 161 -6 174 -8 235 -37 79 -37 150 -107 188 -183
l27 -56 0 -235 0 -235 -27 -56 c-38 -76 -109 -146 -188 -183 -64 -31 -67 -31
-225 -31 l-160 0 -66 32 c-115 57 -202 174 -216 292 l-6 51 -129 0 -130 0 7
-62 c24 -215 155 -406 346 -503 121 -62 164 -70 359 -69 163 0 181 2 257 27
192 64 339 210 411 410 26 71 27 77 27 327 0 250 -1 256 -27 327 -72 201 -220
348 -411 409 -69 22 -109 27 -252 33 -154 6 -175 9 -227 33 -80 37 -151 107
-191 187 l-32 66 0 225 0 225 32 66 c39 80 111 150 191 187 54 26 64 27 217
27 158 0 161 0 225 -31 118 -56 205 -172 217 -290 l6 -54 130 0 130 0 -7 65
c-25 246 -203 465 -439 541 -71 23 -103 27 -232 30 -82 1 -172 -1 -200 -6z"/>
<path d="M640 2945 l0 -125 130 0 130 0 0 125 0 125 -130 0 -130 0 0 -125z"/>
<path d="M640 1855 l0 -706 128 3 127 3 3 703 2 702 -130 0 -130 0 0 -705z"/>
</g>
</svg>
